<svg xmlns="http://www.w3.org/2000/svg" viewBox="0 0 640 420" role="img"><rect width="640" height="420" fill="#f4e7c5"/><path d="M0 345h640v75H0z" fill="#363636"/><path d="M30 330h580" stroke="#111" stroke-width="7" stroke-linecap="round"/><g opacity=".28"><path d="M0 28h640M0 86h640M0 144h640M0 202h640M0 260h640" stroke="#fff" stroke-width="3"/><path d="M50 0v420M130 0v420M210 0v420M290 0v420M370 0v420M450 0v420M530 0v420M610 0v420" stroke="#111" stroke-width="2"/></g><g transform="translate(52 72) rotate(-2)"><rect x="0" y="0" width="170" height="150" rx="8" fill="#7cc7ff" stroke="#111" stroke-width="6"/><path d="M85 0v150M0 75h170" stroke="#111" stroke-width="5"/><rect x="32" y="28" width="105" height="70" fill="#fff" stroke="#111" stroke-width="4"/><path d="M74 88q12-44 42 0" fill="#ddd" stroke="#111" stroke-width="4"/><circle cx="88" cy="68" r="6"/><circle cx="108" cy="68" r="6"/><path d="M58 118h65" stroke="#facc15" stroke-width="8"/></g><g transform="translate(320 185)"><rect x="0" y="20" width="118" height="120" rx="13" fill="#156f52" stroke="#111" stroke-width="7"/><rect x="-8" y="0" width="135" height="26" rx="6" fill="#0e4f3b" stroke="#111" stroke-width="6"/><circle cx="24" cy="150" r="14" fill="#111"/><circle cx="98" cy="150" r="14" fill="#111"/><rect x="-42" y="72" width="205" height="74" fill="#b9834c" stroke="#111" stroke-width="6"/><text x="60" y="114" text-anchor="middle" font-family="Arial Black" font-size="18">PODIUM</text></g><g transform="translate(438 130)"><path d="M0 130V20M42 130V20M84 130V20M126 130V20" stroke="#7b4a25" stroke-width="13"/><path d="M-18 54h166M-18 100h166" stroke="#111" stroke-width="6"/><path d="M0 22l26 32 28-30 30 34 28-34" fill="none" stroke="#e11d48" stroke-width="5"/><path d="M0 22l25 0 1 32zM54 24l30 0v34zM112 24l26 0-26 34z" fill="#facc15" stroke="#111" stroke-width="3"/></g><g fill="#d9d9d9" stroke="#111" stroke-width="3"><path d="M252 70l10 22 24 4-18 16 4 24-20-12-22 12 5-24-18-16 24-4z"/><path d="M545 54l8 18 20 3-15 14 4 20-17-10-18 10 4-20-15-14 20-3z"/></g><g transform="translate(102 266) rotate(2)"><rect width="150" height="52" fill="#fff" stroke="#111" stroke-width="5"/><text x="75" y="32" text-anchor="middle" font-family="Arial Black" font-size="15">LESS BEIGE</text></g><g transform="translate(385 60) rotate(3)"><rect width="160" height="54" fill="#fff" stroke="#111" stroke-width="5"/><text x="80" y="33" text-anchor="middle" font-family="Arial Black" font-size="14">MORE BINFACE</text></g><g transform="translate(220 30)"><rect width="200" height="38" rx="8" fill="#facc15" stroke="#111" stroke-width="5"/><text x="100" y="25" text-anchor="middle" font-family="Arial Black" font-size="15">Less beige. More Binface.</text></g></svg>