<svg xmlns="http://www.w3.org/2000/svg" viewBox="0 0 640 420" role="img"><rect width="640" height="420" fill="#f4e7c5"/><path d="M0 345h640v75H0z" fill="#363636"/><path d="M30 330h580" stroke="#111" stroke-width="7" stroke-linecap="round"/><g opacity=".28"><path d="M0 28h640M0 86h640M0 144h640M0 202h640M0 260h640" stroke="#fff" stroke-width="3"/><path d="M50 0v420M130 0v420M210 0v420M290 0v420M370 0v420M450 0v420M530 0v420M610 0v420" stroke="#111" stroke-width="2"/></g><g transform="translate(160 60)"><path d="M0 285V70l160-70 160 70v215" fill="#5b4b42" stroke="#111" stroke-width="8"/><rect x="82" y="120" width="155" height="165" fill="#7cc7ff" stroke="#111" stroke-width="6"/><rect x="42" y="82" width="235" height="52" fill="#fff" stroke="#111" stroke-width="5"/><text x="160" y="115" text-anchor="middle" font-family="Arial Black" font-size="18">SPACE HQ</text><path d="M80 170h-55l20-20m-20 20l20 20M240 210h58l-20-20m20 20l-20 20" stroke="#facc15" stroke-width="9" fill="none"/><circle cx="105" cy="230" r="20" fill="#e11d48" stroke="#111" stroke-width="4"/><circle cx="210" cy="185" r="18" fill="#facc15" stroke="#111" stroke-width="4"/></g></svg>