<svg xmlns="http://www.w3.org/2000/svg" viewBox="0 0 640 420" role="img"><rect width="640" height="420" fill="#f4e7c5"/><path d="M0 345h640v75H0z" fill="#363636"/><path d="M30 330h580" stroke="#111" stroke-width="7" stroke-linecap="round"/><g opacity=".28"><path d="M0 28h640M0 86h640M0 144h640M0 202h640M0 260h640" stroke="#fff" stroke-width="3"/><path d="M50 0v420M130 0v420M210 0v420M290 0v420M370 0v420M450 0v420M530 0v420M610 0v420" stroke="#111" stroke-width="2"/></g><g transform="translate(250 120)"><rect x="0" y="20" width="118" height="120" rx="13" fill="#156f52" stroke="#111" stroke-width="7"/><rect x="-8" y="0" width="135" height="26" rx="6" fill="#0e4f3b" stroke="#111" stroke-width="6"/><circle cx="24" cy="150" r="14" fill="#111"/><circle cx="98" cy="150" r="14" fill="#111"/><rect x="-42" y="72" width="205" height="74" fill="#b9834c" stroke="#111" stroke-width="6"/><text x="60" y="114" text-anchor="middle" font-family="Arial Black" font-size="18">PODIUM</text></g></svg>