<svg xmlns="http://www.w3.org/2000/svg" viewBox="0 0 640 420" role="img"><rect width="640" height="420" fill="#f4e7c5"/><path d="M0 345h640v75H0z" fill="#363636"/><path d="M30 330h580" stroke="#111" stroke-width="7" stroke-linecap="round"/><g opacity=".28"><path d="M0 28h640M0 86h640M0 144h640M0 202h640M0 260h640" stroke="#fff" stroke-width="3"/><path d="M50 0v420M130 0v420M210 0v420M290 0v420M370 0v420M450 0v420M530 0v420M610 0v420" stroke="#111" stroke-width="2"/></g><g transform="translate(220 60)"><rect width="190" height="265" fill="#b45309" stroke="#111" stroke-width="8"/><circle cx="160" cy="142" r="8" fill="#facc15"/><rect x="-35" y="48" width="260" height="58" fill="#fff" stroke="#111" stroke-width="5"/><text x="95" y="83" text-anchor="middle" font-family="Arial Black" font-size="17">WELCOME CHAOS</text><rect x="30" y="288" width="140" height="42" fill="#facc15" stroke="#111" stroke-width="5"/><text x="100" y="315" text-anchor="middle" font-family="Arial Black" font-size="14">MIND THE BIN</text><path d="M-28 40l18 18M210 40l18 18M-28 110l18-18M210 110l18-18" stroke="#94a3b8" stroke-width="8"/></g></svg>