<svg xmlns="http://www.w3.org/2000/svg" viewBox="0 0 640 420" role="img"><rect width="640" height="420" fill="#f4e7c5"/><path d="M0 345h640v75H0z" fill="#363636"/><path d="M30 330h580" stroke="#111" stroke-width="7" stroke-linecap="round"/><g opacity=".28"><path d="M0 28h640M0 86h640M0 144h640M0 202h640M0 260h640" stroke="#fff" stroke-width="3"/><path d="M50 0v420M130 0v420M210 0v420M290 0v420M370 0v420M450 0v420M530 0v420M610 0v420" stroke="#111" stroke-width="2"/></g><g transform="translate(52 72) rotate(-2)"><rect x="0" y="0" width="170" height="150" rx="8" fill="#7cc7ff" stroke="#111" stroke-width="6"/><path d="M85 0v150M0 75h170" stroke="#111" stroke-width="5"/><rect x="32" y="28" width="105" height="70" fill="#fff" stroke="#111" stroke-width="4"/><path d="M74 88q12-44 42 0" fill="#ddd" stroke="#111" stroke-width="4"/><circle cx="88" cy="68" r="6"/><circle cx="108" cy="68" r="6"/><path d="M58 118h65" stroke="#facc15" stroke-width="8"/></g></svg>